<?xml version="1.0" standalone="no"?>
<!DOCTYPE svg PUBLIC "-//W3C//DTD SVG 20010904//EN"
 "http://www.w3.org/TR/2001/REC-SVG-20010904/DTD/svg10.dtd">
<svg version="1.0" xmlns="http://www.w3.org/2000/svg"
 width="512.000000pt" height="512.000000pt" viewBox="0 0 512.000000 512.000000"
 preserveAspectRatio="xMidYMid meet">

<g transform="translate(0.000000,512.000000) scale(0.100000,-0.100000)"
fill="#000000" stroke="none">
<path d="M1525 5034 c-708 -76 -1277 -597 -1417 -1297 -32 -162 -32 -434 0
-595 94 -467 355 -836 770 -1087 1 -1 -11 -31 -28 -68 -16 -36 -32 -83 -36
-105 l-6 -39 -75 -7 c-169 -15 -315 -86 -438 -210 -91 -92 -144 -176 -183
-291 -27 -80 -27 -81 -27 -375 0 -294 0 -295 27 -375 40 -116 92 -199 183
-290 91 -91 174 -143 290 -183 l80 -27 1655 0 1655 0 80 27 c116 40 199 92
290 183 91 91 143 174 183 290 27 80 27 81 27 375 0 294 0 295 -27 375 -40
116 -92 199 -183 290 -127 127 -270 196 -439 211 -62 6 -76 10 -76 24 0 9 -9
43 -20 75 -11 32 -20 61 -20 65 0 4 48 10 108 14 137 9 374 41 494 66 295 61
486 144 582 251 90 100 88 201 -6 304 -41 45 -73 67 -162 111 -61 29 -116 54
-123 54 -17 0 -17 -1 12 62 32 68 32 127 1 195 -42 89 -139 169 -276 228 -25
10 -46 20 -48 21 -2 1 4 25 14 53 47 145 -35 297 -217 406 -96 57 -99 60 -99
98 0 44 -45 167 -86 238 -24 40 -91 118 -177 207 -77 78 -143 142 -146 142 -4
0 -32 -52 -64 -115 -92 -185 -156 -237 -316 -255 -42 -5 -88 -11 -102 -15 -22
-5 -27 2 -67 83 -210 438 -634 763 -1128 862 -97 20 -365 34 -459 24z m278
-160 l37 -7 0 -649 0 -649 -25 -24 c-32 -33 -78 -33 -110 0 l-25 24 0 312 c0
215 -4 324 -12 353 -16 55 -99 138 -154 154 -94 28 -169 8 -239 -63 -69 -68
-75 -94 -75 -324 0 -190 0 -192 -25 -216 -32 -33 -78 -33 -111 0 l-24 24 2
462 3 462 98 39 c113 45 254 83 359 96 88 11 249 14 301 6z m286 -55 c367
-103 701 -383 877 -737 32 -64 54 -120 51 -130 -3 -9 -16 -43 -30 -75 -22 -53
-30 -60 -108 -108 -46 -27 -106 -71 -132 -97 -91 -89 -127 -209 -93 -313 10
-28 16 -52 14 -53 -192 -87 -280 -154 -322 -246 -33 -71 -33 -129 -1 -198 29
-63 29 -62 12 -62 -7 0 -62 -25 -123 -54 -89 -44 -121 -66 -162 -111 -94 -102
-95 -204 -5 -305 l43 -48 -62 -36 c-67 -37 -123 -85 -176 -151 l-32 -40 -27
35 c-72 95 -172 165 -293 206 -77 26 -244 26 -320 0 -74 -25 -140 -59 -178
-91 l-32 -26 -48 26 c-204 111 -432 356 -550 590 -303 605 -135 1358 394 1771
45 35 85 64 88 64 3 0 6 -185 6 -411 0 -287 4 -424 12 -451 15 -52 76 -120
128 -143 37 -17 41 -22 36 -44 -4 -14 -9 -64 -12 -111 -19 -283 171 -554 451
-643 99 -31 271 -31 370 0 199 63 365 229 428 428 33 104 31 281 -5 382 -47
131 -124 238 -227 313 l-61 45 0 422 c0 233 3 423 7 423 4 0 41 -9 82 -21z
m-593 -604 c22 -22 25 -32 22 -91 l-3 -66 -64 -24 c-35 -14 -70 -29 -78 -35
-11 -9 -13 7 -13 90 0 95 2 104 25 126 32 33 78 33 111 0z m2372 -236 c56
-117 67 -251 25 -307 -11 -14 -32 -35 -47 -46 -26 -20 -40 -21 -326 -21 -286
0 -300 1 -326 21 -53 39 -69 71 -69 134 0 44 5 66 21 86 38 52 67 66 156 75
166 17 290 87 369 211 l33 51 67 -70 c41 -44 78 -95 97 -134z m-2348 -250 c0
-98 5 -178 12 -203 16 -55 99 -138 154 -154 94 -28 169 -8 239 63 64 63 75
100 75 246 l0 113 36 -35 c50 -48 103 -161 116 -247 41 -262 -143 -507 -408
-545 -297 -43 -565 209 -541 508 8 97 27 141 85 201 27 29 53 65 57 82 3 16
14 37 23 45 22 20 133 87 144 87 4 0 8 -73 8 -161z m1480 -119 c18 -44 82
-105 142 -137 l53 -28 325 0 325 0 53 28 c60 32 124 93 142 137 15 36 20 37
68 6 57 -36 120 -109 127 -149 26 -135 -176 -274 -475 -328 -43 -8 -145 -14
-240 -14 -177 0 -265 12 -395 52 -214 67 -341 181 -320 290 7 38 68 112 125
149 46 30 55 30 70 -6z m-152 -480 c99 -66 223 -112 397 -147 67 -13 138 -17
275 -17 137 0 208 4 275 17 174 35 298 81 397 147 33 22 66 40 73 40 24 0 139
-53 195 -89 60 -39 100 -91 100 -127 0 -79 -201 -192 -445 -249 -198 -47 -322
-59 -595 -59 -273 0 -397 12 -595 59 -244 57 -445 170 -445 249 0 36 40 88
100 127 59 38 165 87 191 88 9 1 44 -17 77 -39z m-270 -474 c110 -55 302 -111
487 -140 487 -78 1041 -24 1388 136 l68 32 72 -23 c158 -50 287 -132 287 -183
0 -58 -157 -146 -364 -203 -207 -56 -404 -85 -761 -110 l-80 -5 -55 41 c-114
85 -198 114 -340 114 -115 0 -170 -14 -271 -67 -59 -31 -136 -98 -182 -158
l-27 -35 -27 35 c-81 105 -201 183 -333 216 -130 32 -280 125 -280 174 0 24
49 73 106 106 48 28 218 93 247 94 10 0 39 -11 65 -24z m-1054 -534 c91 -42
149 -100 194 -190 l37 -76 0 -236 c0 -134 -6 -274 -13 -325 -38 -266 -124
-474 -273 -660 l-61 -75 -326 0 c-322 0 -402 4 -402 21 0 5 20 39 44 76 166
258 222 482 234 938 l8 260 31 67 c40 84 97 147 172 186 78 42 122 52 213 48
61 -3 92 -11 142 -34z m972 -6 c116 -58 189 -155 215 -285 16 -81 6 -435 -16
-576 -38 -244 -120 -437 -263 -615 l-63 -80 -376 0 -375 0 16 23 c50 69 131
214 161 288 83 204 114 387 124 734 l7 250 31 67 c40 84 97 147 172 186 79 43
122 52 215 47 66 -3 91 -9 152 -39z m960 0 c112 -56 177 -139 211 -269 13 -52
15 -97 10 -272 -13 -447 -85 -680 -286 -934 l-63 -81 -375 0 c-297 0 -373 3
-367 13 5 6 28 41 52 77 86 128 162 314 197 480 27 128 37 239 44 480 l7 245
31 67 c40 84 97 147 172 186 79 43 122 52 215 47 66 -3 91 -9 152 -39z m-2659
-608 c-3 -95 -13 -214 -21 -263 -33 -198 -106 -384 -206 -530 l-52 -75 -30 18
c-44 26 -136 121 -166 170 -132 226 -98 503 83 684 98 98 239 163 364 167 l34
1 -6 -172z m3149 161 c194 -35 362 -187 430 -389 26 -76 26 -244 0 -320 -29
-88 -81 -173 -142 -234 -65 -65 -118 -99 -213 -135 -61 -23 -82 -25 -273 -29
-115 -2 -208 -2 -208 2 0 3 20 33 43 68 165 239 236 489 253 886 8 185 -2 171
110 151z m-3535 -1153 c71 -47 166 -84 257 -102 110 -21 3194 -21 3304 0 134
26 255 86 356 179 40 37 44 39 37 17 -17 -57 -79 -152 -135 -208 -63 -62 -137
-107 -230 -138 -53 -18 -118 -19 -1680 -19 -1562 0 -1627 1 -1680 19 -93 32
-170 78 -231 139 -55 55 -118 151 -134 207 -7 22 -3 20 37 -17 25 -22 70 -57
99 -77z"/>
<path d="M2160 4480 l0 -80 80 0 80 0 0 80 0 80 -80 0 -80 0 0 -80z"/>
<path d="M2320 4160 l0 -80 80 0 80 0 0 80 0 80 -80 0 -80 0 0 -80z"/>
<path d="M560 4080 l0 -80 80 0 80 0 0 80 0 80 -80 0 -80 0 0 -80z"/>
<path d="M2480 3840 l0 -80 80 0 80 0 0 80 0 80 -80 0 -80 0 0 -80z"/>
<path d="M560 3600 l0 -80 80 0 80 0 0 80 0 80 -80 0 -80 0 0 -80z"/>
<path d="M400 3280 l0 -80 80 0 80 0 0 80 0 80 -80 0 -80 0 0 -80z"/>
<path d="M800 3120 l0 -80 80 0 80 0 0 80 0 80 -80 0 -80 0 0 -80z"/>
<path d="M640 2800 l0 -80 80 0 80 0 0 80 0 80 -80 0 -80 0 0 -80z"/>
<path d="M1040 2800 l0 -80 80 0 80 0 0 80 0 80 -80 0 -80 0 0 -80z"/>
<path d="M1360 2640 l0 -80 80 0 80 0 0 80 0 80 -80 0 -80 0 0 -80z"/>
<path d="M880 2480 l0 -80 80 0 80 0 0 80 0 80 -80 0 -80 0 0 -80z"/>
<path d="M1680 2480 l0 -80 80 0 80 0 0 80 0 80 -80 0 -80 0 0 -80z"/>
</g>
</svg>
